<?xml version="1.0" encoding="utf-8"?>
<!-- Generator: Adobe Illustrator 24.1.2, SVG Export Plug-In . SVG Version: 6.00 Build 0)  -->
<svg version="1.1" id="Layer_1" xmlns="http://www.w3.org/2000/svg" xmlns:xlink="http://www.w3.org/1999/xlink" x="0px" y="0px"
	 viewBox="0 0 100 40" style="enable-background:new 0 0 100 40;" xml:space="preserve">
<style type="text/css">
	.st0{fill:#FFFFFF;}
	.st1{fill:#0088CC;}
	.st2{fill-rule:evenodd;clip-rule:evenodd;fill:#FFFFFF;}
</style>
<path class="st0" d="M49.1,27.7V16.3h-4.4v-3.1h12.6v3.1h-4.4v11.4C52.9,27.7,49.1,27.7,49.1,27.7z M57.6,20.5
	c0-1.5,0.3-2.8,0.9-3.9c0.6-1.1,1.4-2,2.5-2.6c1.1-0.6,2.4-0.9,3.9-0.9c1.5,0,2.8,0.3,3.9,0.9c1.1,0.6,2,1.5,2.5,2.6
	c0.6,1.1,0.9,2.4,0.9,3.9c0,1.5-0.3,2.8-0.9,3.9c-0.6,1.1-1.4,2-2.5,2.6c-1.1,0.6-2.4,0.9-3.9,0.9c-1.5,0-2.8-0.3-3.9-0.9
	c-1.1-0.6-2-1.5-2.5-2.6C57.9,23.3,57.6,21.9,57.6,20.5L57.6,20.5z M61.6,20.5c0,0.9,0.1,1.7,0.4,2.3c0.2,0.6,0.6,1.1,1.1,1.5
	c0.5,0.3,1.1,0.5,1.9,0.5c1.1,0,2-0.4,2.5-1.1c0.6-0.8,0.8-1.8,0.8-3.2c0-0.9-0.1-1.7-0.4-2.3c-0.2-0.6-0.6-1.1-1.1-1.5
	c-0.5-0.3-1.1-0.5-1.9-0.5c-1.1,0-2,0.4-2.5,1.1C61.9,18,61.6,19.1,61.6,20.5L61.6,20.5z M74.6,27.7V13.2h2.8l7.3,9.1h-0.6v-9.1h3.5
	v14.5h-2.8l-7.3-9.1h0.6v9.1L74.6,27.7L74.6,27.7z"/>
<path class="st1" d="M18,38c9.9,0,18-8.1,18-18S27.9,2,18,2S0,10.1,0,20S8.1,38,18,38z"/>
<path class="st2" d="M13,13.9h10.1c0.4,0,0.7,0.1,1.1,0.2c0.4,0.2,0.7,0.5,0.9,0.8c0.2,0.4,0.3,0.8,0.3,1.2c0,0.4-0.1,0.8-0.3,1.2
	l0,0l-6.4,11c-0.2,0.4-0.7,0.5-1.1,0.3c-0.1-0.1-0.2-0.2-0.3-0.3l-6.3-10.9l0,0c-0.1-0.2-0.4-0.6-0.4-1.1c-0.1-0.9,0.4-1.7,1.2-2.1
	C12.3,13.9,12.7,13.9,13,13.9L13,13.9z M17.2,15.5H13c-0.3,0-0.4,0-0.5,0.1c-0.2,0.1-0.3,0.3-0.3,0.6c0,0.1,0,0.1,0.2,0.4
	c0,0,0,0,0,0l4.8,8.4C17.2,24.9,17.2,15.5,17.2,15.5z M18.8,15.5v9.5l4.9-8.4c0.1-0.1,0.1-0.3,0.1-0.4c0-0.1,0-0.2-0.1-0.3
	c0-0.1-0.1-0.1-0.1-0.2c0,0,0,0-0.1-0.1c-0.1-0.1-0.3-0.1-0.4-0.1L18.8,15.5L18.8,15.5z"/>
</svg>
